<svg width="640" height="640" viewBox="0 0 640 640" xmlns="http://www.w3.org/2000/svg">
    <defs/>
    <g>
        <path fill="#321d47" stroke="none" d="M 640 320.3 C 640 497.2 496.6 640.6 319.7 640.6 C 142.8 640.6 -0.5 497.1 -0.5 320.3 C -0.5 143.5 142.9 0 319.8 0 C 496.7 0 640 143.4 640 320.3 Z"/>
        <path fill="#e40b7b" stroke="none" d="M 368.2 121.1 C 368.2 147.27829714 346.97829714 168.5 320.8 168.5 C 294.62170286 168.5 273.4 147.27829714 273.4 121.1 C 273.4 94.92170286 294.62170286 73.7 320.8 73.7 C 346.97829714 73.7 368.2 94.92170286 368.2 121.1 Z"/>
        <path fill="#e40b7b" stroke="none" d="M 368.2 519.9 C 368.2 546.07829714 346.97829714 567.3 320.8 567.3 C 294.62170286 567.3 273.4 546.07829714 273.4 519.9 C 273.4 493.72170286 294.62170286 472.5 320.8 472.5 C 346.97829714 472.5 368.2 493.72170286 368.2 519.9 Z"/>
        <path fill="#e40b7b" stroke="none" d="M 193.4 215.9 C 193.4 242.07829714 172.17829714 263.3 146 263.3 C 119.82170286 263.3 98.6 242.07829714 98.6 215.9 C 98.6 189.72170286 119.82170286 168.5 146 168.5 C 172.17829714 168.5 193.4 189.72170286 193.4 215.9 Z"/>
        <path fill="#e40b7b" stroke="none" d="M 543.1 215.9 C 543.1 242.07829714 521.87829714 263.3 495.7 263.3 C 469.52170286 263.3 448.3 242.07829714 448.3 215.9 C 448.3 189.72170286 469.52170286 168.5 495.7 168.5 C 521.87829714 168.5 543.1 189.72170286 543.1 215.9 Z"/>
        <path fill="#e40b7b" stroke="none" d="M 193.4 426.7 C 193.4 452.87829714 172.17829714 474.1 146 474.1 C 119.82170286 474.1 98.6 452.87829714 98.6 426.7 C 98.6 400.52170286 119.82170286 379.3 146 379.3 C 172.17829714 379.3 193.4 400.52170286 193.4 426.7 Z"/>
        <path fill="#e40b7b" stroke="none" d="M 543.1 426.7 C 543.1 452.87829714 521.87829714 474.1 495.7 474.1 C 469.52170286 474.1 448.3 452.87829714 448.3 426.7 C 448.3 400.52170286 469.52170286 379.3 495.7 379.3 C 521.87829714 379.3 543.1 400.52170286 543.1 426.7 Z"/>
        <path fill="#ffffff" stroke="none" d="M 425.2 335.7 C 420.2 328.2 412.7 322.4 402.8 318.1 C 399.6 316.7 396.1 315.6 392.4 314.6 C 393.2 314.2 393.9 313.8 394.7 313.4 C 403.5 308.3 409.9 302 413.8 294.5 C 417.7 287 419.7 278.7 419.7 269.6 C 419.7 259.6 417.4 251 412.8 243.8 C 408.2 236.5 401.5 231 392.9 227.1 C 384.2 223.2 373.9 221.3 361.9 221.3 L 213.9 221.3 L 228.7 317.7 L 213.9 419.4 L 367.4 419.4 C 381.6 419.4 393.5 417 403.4 412.1 C 413.2 407.3 420.6 400.5 425.5 392 C 430.4 383.4 432.9 373.6 432.9 362.6 C 432.7 352.1 430.2 343.2 425.2 335.7 Z M 366 311 L 366 311 C 366 311 366 311 366 311 L 366 311 Z M 343.9 268.1 C 346.3 269.3 348.2 271 349.4 273.1 C 350.7 275.2 351.3 277.6 351.3 280.4 C 351.3 283.3 350.6 285.9 349.2 288.2 C 347.8 290.5 345.9 292.3 343.5 293.6 C 341.1 294.9 338.4 295.5 335.3 295.5 L 289 295.5 L 284.3 266.4 L 335.4 266.4 C 338.6 266.3 341.5 266.9 343.9 268.1 Z M 359.4 369.5 C 356.1 372.6 351.6 374.1 345.8 374.1 L 284 374.1 L 289.2 339.8 L 345.2 339.8 C 351.2 339.8 355.9 341.4 359.2 344.6 C 362.6 347.8 364.2 351.7 364.2 356.9 C 364.4 362.2 362.7 366.4 359.4 369.5 Z"/>
    </g>
</svg>
