<svg width="640" height="640" viewBox="0 0 640 640" xmlns="http://www.w3.org/2000/svg">
    <defs/>
    <g transform="matrix(1 0 0 1 319.75 320.3)">
        <g transform="matrix(1 0 0 1 -319.75 -320.3)">
            <path fill="#000000" stroke="none" d="M 640 320.3 C 640 497.2 496.6 640.6 319.7 640.6 C 142.8 640.6 -0.5 497.1 -0.5 320.3 C -0.5 143.5 142.9 0 319.8 0 C 496.7 0 640 143.4 640 320.3 Z"/>
        </g>
    </g>
    <g transform="matrix(1.32 0 0 1.32 320.26 320.47)">
        <g transform="matrix(1 0 0 1 -221 -221.66)">
            <path fill="#ffffff" stroke="none" d="M 373.6 127.4 C 368.4 123.3 362.2 117.7 350.9 116.3 C 340.3 114.9 329.5 122 322.2 126.7 C 314.9 131.4 301.1 145.2 295.4 149.4 C 289.7 153.6 275.1 157.5 251.6 171.6 C 228.1 185.7 135.9 244.9 135.9 244.9 L 159.9 245.2 L 52.9 300.3 L 63.6 300.3 L 48.2 312 C 48.2 312 61.8 315.6 73.2 308.4 L 73.2 311.7 C 73.2 311.7 200.6 261.5 225.2 274.5 L 210.2 278.9 C 211.5 278.9 235.7 280.5 235.7 280.5 C 236.88917202 290.64572266 242.53353148 299.73534049 251.1 305.3 C 265.7 314.9 266 320.2 266 320.2 C 266 320.2 258.4 323.3 258.4 327.2 C 258.4 327.2 269.6 323.8 280 324.1 C 286.6005308 324.35031896 293.14724696 325.39107897 299.5 327.2 C 299.5 327.2 298.7 323 288.6 320.2 C 278.5 317.4 268.5 306.4 263.6 300.4 C 257.49393277 292.6301044 255.93575452 282.2169132 259.5 273 C 263 263.9 275.2 258.9 300.4 245.9 C 330.1 230.5 336.9 219.1 341.1 210.2 C 345.3 201.3 351.5 183.6 355 175.3 C 359.4 164.6 364.8 158.9 369.3 155.5 C 373.8 152.1 393.8 144.6 393.8 144.6 C 393.8 144.6 378.5 131.3 373.6 127.4 Z"/>
        </g>
    </g>
</svg>
